<svg width="20" height="14" viewBox="0 0 20 14" fill="none" xmlns="http://www.w3.org/2000/svg">
<path d="M0 13.6668V11.3543C0 10.8821 0.118056 10.4446 0.354167 10.0418C0.590278 9.63905 0.916667 9.3335 1.33333 9.12516C1.52778 9.02794 1.71528 8.93766 1.89583 8.85433C2.09028 8.771 2.29167 8.69461 2.5 8.62516V13.6668H0ZM3.33333 7.8335C2.63889 7.8335 2.04861 7.59044 1.5625 7.10433C1.07639 6.61822 0.833333 6.02794 0.833333 5.3335C0.833333 4.63905 1.07639 4.04877 1.5625 3.56266C2.04861 3.07655 2.63889 2.8335 3.33333 2.8335C4.02778 2.8335 4.61806 3.07655 5.10417 3.56266C5.59028 4.04877 5.83333 4.63905 5.83333 5.3335C5.83333 6.02794 5.59028 6.61822 5.10417 7.10433C4.61806 7.59044 4.02778 7.8335 3.33333 7.8335ZM3.33333 6.16683C3.56944 6.16683 3.76389 6.09044 3.91667 5.93766C4.08333 5.771 4.16667 5.56961 4.16667 5.3335C4.16667 5.09739 4.08333 4.90294 3.91667 4.75016C3.76389 4.5835 3.56944 4.50016 3.33333 4.50016C3.09722 4.50016 2.89583 4.5835 2.72917 4.75016C2.57639 4.90294 2.5 5.09739 2.5 5.3335C2.5 5.56961 2.57639 5.771 2.72917 5.93766C2.89583 6.09044 3.09722 6.16683 3.33333 6.16683ZM3.33333 13.6668V11.3335C3.33333 10.8613 3.45139 10.4307 3.6875 10.0418C3.9375 9.63905 4.26389 9.3335 4.66667 9.12516C5.52778 8.69461 6.40278 8.37516 7.29167 8.16683C8.18056 7.94461 9.08333 7.8335 10 7.8335C10.9167 7.8335 11.8194 7.94461 12.7083 8.16683C13.5972 8.37516 14.4722 8.69461 15.3333 9.12516C15.7361 9.3335 16.0556 9.63905 16.2917 10.0418C16.5417 10.4307 16.6667 10.8613 16.6667 11.3335V13.6668H3.33333ZM5 12.0002H15V11.3335C15 11.1807 14.9583 11.0418 14.875 10.9168C14.8056 10.7918 14.7083 10.6946 14.5833 10.6252C13.8333 10.2502 13.0764 9.97239 12.3125 9.79183C11.5486 9.59739 10.7778 9.50016 10 9.50016C9.22222 9.50016 8.45139 9.59739 7.6875 9.79183C6.92361 9.97239 6.16667 10.2502 5.41667 10.6252C5.29167 10.6946 5.1875 10.7918 5.10417 10.9168C5.03472 11.0418 5 11.1807 5 11.3335V12.0002ZM10 7.00016C9.08333 7.00016 8.29861 6.67377 7.64583 6.021C6.99306 5.36822 6.66667 4.5835 6.66667 3.66683C6.66667 2.75016 6.99306 1.96544 7.64583 1.31266C8.29861 0.659885 9.08333 0.333496 10 0.333496C10.9167 0.333496 11.7014 0.659885 12.3542 1.31266C13.0069 1.96544 13.3333 2.75016 13.3333 3.66683C13.3333 4.5835 13.0069 5.36822 12.3542 6.021C11.7014 6.67377 10.9167 7.00016 10 7.00016ZM10 5.3335C10.4583 5.3335 10.8472 5.17377 11.1667 4.85433C11.5 4.521 11.6667 4.12516 11.6667 3.66683C11.6667 3.2085 11.5 2.81961 11.1667 2.50016C10.8472 2.16683 10.4583 2.00016 10 2.00016C9.54167 2.00016 9.14583 2.16683 8.8125 2.50016C8.49306 2.81961 8.33333 3.2085 8.33333 3.66683C8.33333 4.12516 8.49306 4.521 8.8125 4.85433C9.14583 5.17377 9.54167 5.3335 10 5.3335ZM16.6667 7.8335C15.9722 7.8335 15.3819 7.59044 14.8958 7.10433C14.4097 6.61822 14.1667 6.02794 14.1667 5.3335C14.1667 4.63905 14.4097 4.04877 14.8958 3.56266C15.3819 3.07655 15.9722 2.8335 16.6667 2.8335C17.3611 2.8335 17.9514 3.07655 18.4375 3.56266C18.9236 4.04877 19.1667 4.63905 19.1667 5.3335C19.1667 6.02794 18.9236 6.61822 18.4375 7.10433C17.9514 7.59044 17.3611 7.8335 16.6667 7.8335ZM16.6667 6.16683C16.9028 6.16683 17.0972 6.09044 17.25 5.93766C17.4167 5.771 17.5 5.56961 17.5 5.3335C17.5 5.09739 17.4167 4.90294 17.25 4.75016C17.0972 4.5835 16.9028 4.50016 16.6667 4.50016C16.4306 4.50016 16.2292 4.5835 16.0625 4.75016C15.9097 4.90294 15.8333 5.09739 15.8333 5.3335C15.8333 5.56961 15.9097 5.771 16.0625 5.93766C16.2292 6.09044 16.4306 6.16683 16.6667 6.16683ZM17.5 13.6668V8.62516C17.7083 8.69461 17.9028 8.771 18.0833 8.85433C18.2778 8.93766 18.4722 9.02794 18.6667 9.12516C19.0833 9.3335 19.4097 9.63905 19.6458 10.0418C19.8819 10.4446 20 10.8821 20 11.3543V13.6668H17.5Z" fill="white"/>
</svg>
